<svg xmlns="http://www.w3.org/2000/svg" xmlns:xlink="http://www.w3.org/1999/xlink" viewBox="0 0 612.8 438.22"><defs><radialGradient id="radial-gradient" cx="418.57" cy="110.84" r="61.92" gradientUnits="userSpaceOnUse"><stop offset="0" stop-color="#fff"/><stop offset="1" stop-color="#939598"/></radialGradient><radialGradient id="radial-gradient-2" cx="310.25" cy="283.64" r="136.27" xlink:href="#radial-gradient"/><radialGradient id="radial-gradient-3" cx="309.62" cy="407.3" r="22.13" xlink:href="#radial-gradient"/></defs><g id="Layer_2" data-name="Layer 2"><g id="ball"><path d="M161.7,208.12c1.27-.15,2.55-.36,3.81-.63C164.25,207.75,163,208,161.7,208.12Zm14.6-4.57c.67-.38,1.35-.77,2-1.21C177.64,202.77,177,203.17,176.3,203.55Zm8.35-124.63h0l1.4.43Zm-3.88-1.08-1.13-.29-.44-.11h-.08l.08,0,1.66.42Zm-7.34-1.65-.31,0,.91.17Zm-45.79,30s-.37,13.32,9.36,43.93C131.24,127.77,127.64,106.16,127.64,106.16Zm61.24-25.85-.19-.07-.23-.08c-.77-.27-1.59-.54-2.44-.81l-1.37-.43h0l-1.35-.39-.19-.06-.69-.19-.38-.1h0l-.13,0-1-.27-.09,0-1.13-.29-.44-.11h-.08l-1.28-.3-.19,0-.32-.08-1.68-.37-.44-.09L174,76.31l-.6-.12-.31,0q-.81-.17-1.65-.3l-.52-.09s0,0,0,0l-1-.16-.7-.12-.72-.11c-1.06-.17-2.14-.32-3.26-.45l-1.13-.13-.61-.07-.3,0-.14,0h-.17l-.57-.07h0l-.53,0c2.39.4,18.44,3.12,30.44,7C191.16,81.13,190.06,80.72,188.88,80.31Zm3.39,1.24A60,60,0,0,1,205,88.12C203.27,85.74,198.27,83.5,192.27,81.55Zm-64.63,24.61s-.37,13.32,9.36,43.93C131.24,127.77,127.64,106.16,127.64,106.16Zm61.24-25.85-.19-.07-.23-.08c-.77-.27-1.59-.54-2.44-.81l-1.37-.43h0l-1.35-.39-.19-.06-.69-.19-.38-.1h0l-.13,0-1-.27-.09,0-1.13-.29-.44-.11h-.08l-1.28-.3-.19,0-.32-.08-1.68-.37-.44-.09L174,76.31l-.6-.12-.31,0q-.81-.17-1.65-.3l-.52-.09s0,0,0,0l-1-.16-.7-.12-.72-.11c-1.06-.17-2.14-.32-3.26-.45l-1.13-.13-.61-.07-.3,0-.14,0h-.17l-.57-.07h0l-.53,0c2.39.4,18.44,3.12,30.44,7C191.16,81.13,190.06,80.72,188.88,80.31Zm3.39,1.24A60,60,0,0,1,205,88.12C203.27,85.74,198.27,83.5,192.27,81.55Zm0,0A60,60,0,0,1,205,88.12C203.27,85.74,198.27,83.5,192.27,81.55Zm-3.39-1.24-.19-.07-.23-.08c-.77-.27-1.59-.54-2.44-.81l-1.37-.43h0l-1.35-.39-.19-.06-.69-.19-.38-.1h0l-.13,0-1-.27-.09,0-1.13-.29-.44-.11h-.08l-1.28-.3-.19,0-.32-.08-1.68-.37-.44-.09L174,76.31l-.6-.12-.31,0q-.81-.17-1.65-.3l-.52-.09s0,0,0,0l-1-.16-.7-.12-.72-.11c-1.06-.17-2.14-.32-3.26-.45l-1.13-.13-.61-.07-.3,0-.14,0h-.17l-.57-.07h0l-.53,0c2.39.4,18.44,3.12,30.44,7C191.16,81.13,190.06,80.72,188.88,80.31Zm-61.24,25.85s-.37,13.32,9.36,43.93C131.24,127.77,127.64,106.16,127.64,106.16ZM73.52,132.21c.09-6.15,2.55-13.05,5.5-19.19C75.52,119.89,72.7,127.3,73.52,132.21Zm15-35.16c-.12.18-.26.36-.4.57-.81,1.14-1.92,2.77-3.16,4.74-.2.33-.41.68-.64,1s-.46.76-.7,1.16c-.72,1.18-1.45,2.45-2.18,3.79-.18.3-.33.61-.5.92-.57,1-1.13,2.15-1.68,3.27,1.54-3,3.19-5.86,4.7-8.35.28-.45.55-.88.8-1.3,1.56-2.52,2.93-4.56,3.76-5.8l.18-.26A2,2,0,0,0,88.53,97.05Zm.35-.48s0,0,0,0,.06-.08.08-.12A.39.39,0,0,0,88.88,96.57ZM73.52,132.21c5.28,15.84,24,33.6,28.31,33.12C101.83,165.33,85.52,156.56,73.52,132.21Zm54.12-26.05s-.37,13.32,9.36,43.93C131.24,127.77,127.64,106.16,127.64,106.16Zm0,0s-.37,13.32,9.36,43.93C131.24,127.77,127.64,106.16,127.64,106.16Zm28.19-70.62.49.19A66.57,66.57,0,0,1,170,29.65,45.71,45.71,0,0,0,155.83,35.54ZM170,29.64q2.37-.6,4.71-1.05a110.47,110.47,0,0,1,14.47-1.78l.75,0,.71,0,1-.05c2.4-.1,4-.09,4.41-.08A63,63,0,0,0,170,29.64Zm-42.33,76.52s-.37,13.32,9.36,43.93C131.24,127.77,127.64,106.16,127.64,106.16Zm64.63-24.61A60,60,0,0,1,205,88.12C203.27,85.74,198.27,83.5,192.27,81.55Zm-3.39-1.24-.19-.07-.23-.08c-.77-.27-1.59-.54-2.44-.81l-1.37-.43h0l-1.35-.39-.19-.06-.69-.19-.38-.1h0l-.13,0-1-.27-.09,0-1.13-.29-.44-.11h-.08l-1.28-.3-.19,0-.32-.08-1.68-.37-.44-.09L174,76.31l-.6-.12-.31,0q-.81-.17-1.65-.3l-.52-.09s0,0,0,0l-1-.16-.7-.12-.72-.11c-1.06-.17-2.14-.32-3.26-.45l-1.13-.13-.61-.07-.3,0-.14,0h-.17l-.57-.07h0l-.53,0c2.39.4,18.44,3.12,30.44,7C191.16,81.13,190.06,80.72,188.88,80.31Zm-61.24,25.85s-.37,13.32,9.36,43.93C131.24,127.77,127.64,106.16,127.64,106.16Zm45.79-30-.31,0,.91.17Zm7.34,1.65-1.13-.29-.44-.11h-.08l.08,0,1.66.42Zm3.88,1.08h0l1.4.43Zm-11.22-2.73-.31,0,.91.17Zm7.34,1.65-1.13-.29-.44-.11h-.08l.08,0,1.66.42Zm3.88,1.08h0l1.4.43Zm7.62,2.63A60,60,0,0,1,205,88.12C203.27,85.74,198.27,83.5,192.27,81.55Z" fill="none" stroke="#231f20" stroke-linecap="round" stroke-linejoin="round" stroke-width="3"/><path d="M110,195.8l-12.93,2.44A107.07,107.07,0,0,1,51,132.49c8.55.26,21.11.5,22.52-.28,5.28,15.84,24,33.6,28.31,33.12-.62,6.14.88,12.79,2.78,18.31.08.24.16.47.23.7.18.5.37,1,.55,1.47s.37,1,.55,1.42c.86,2.14,1.71,4,2.4,5.42.19.39.37.75.55,1.07.07.17.17.33.25.49s.27.53.39.75h0l.3.52h0Z" fill="#fff" stroke="#231f20" stroke-linecap="round" stroke-linejoin="round" stroke-width="3"/><path d="M161.47,74.48c-5.76,2.17-33.83,31.68-33.83,31.68s-15.49-3.6-38.17-10.43l0,.06c0,.06-.1.12-.16.23l-.12.16c-.06.08-.12.18-.19.29a.39.39,0,0,0-.08.1l-.17.23v0a2,2,0,0,0-.18.23c-.13.17-.26.36-.4.57-.81,1.14-1.92,2.77-3.16,4.74-.2.33-.41.68-.64,1s-.46.76-.7,1.16c-.72,1.18-1.45,2.45-2.18,3.79-.18.3-.33.61-.5.92-.57,1-1.13,2.15-1.68,3.27a.42.42,0,0,0-.07.13h0L79,113c-3.5,6.87-6.32,14.28-5.5,19.19-1.41.78-14,.54-22.52.28h0A107.3,107.3,0,0,1,62,56.17c6-.9,14.09-1.57,20.86-.23,0,.42,0,.85-.06,1.25a2.19,2.19,0,0,0,.3-.16c10.52-19.62,32.65-29.19,35.38-30.31,12.71-.45,33.9,7.48,37.39,8.82l-.3.19C155.71,52.16,157.88,48.92,161.47,74.48Z" fill="#fff" stroke="#231f20" stroke-linecap="round" stroke-linejoin="round" stroke-width="3"/><path d="M196.16,26.6h-.1a63,63,0,0,0-26.09,3h0a45.71,45.71,0,0,0-14.12,5.89c-3.49-1.34-24.68-9.27-37.39-8.82a2.42,2.42,0,0,0,.27-.12V7.91a107.28,107.28,0,0,1,78,1.93C197.08,16.57,197.3,25.15,196.16,26.6Z" fill="#fff" stroke="#231f20" stroke-linecap="round" stroke-linejoin="round" stroke-width="3"/><path d="M249,68l.11.35c-5.7-3.15-16.49-8.81-23.76-10.8h0c-1.27-1.83-2.49-3.57-3.72-5.21-.45-.62-.9-1.22-1.36-1.81-.7-.93-1.39-1.82-2.09-2.69l-.68-.85c-.24-.28-.45-.56-.68-.84l-1.33-1.6c-.22-.26-.43-.52-.67-.77s-.43-.51-.64-.76c-.64-.74-1.27-1.45-1.91-2.14l-.6-.67c-.61-.67-1.22-1.3-1.8-1.91-.19-.21-.39-.41-.58-.6s-.38-.4-.58-.59l-.55-.56c-.46-.47-.9-.9-1.34-1.32s-.71-.68-1.06-1c-.59-.56-1.16-1.08-1.71-1.57l-.92-.81-1.13-1c-.27-.24-.55-.46-.81-.67-1.43-1.17-2.59-2-3.43-2.6-.25-.16-.45-.31-.63-.43l-.06,0-.5-.33-.36-.21c1.14-1.45.92-10,.55-16.76a107.33,107.33,0,0,1,54.92,52.1Z" fill="#fff" stroke="#231f20" stroke-linecap="round" stroke-linejoin="round" stroke-width="3"/><path d="M262.08,114.41a106.39,106.39,0,0,1-30.25,68.77l-3.57-3.77c6.64-7.27,11.64-18.25,12.77-34.72,10.72-9.69,16.46-23.82,18.9-31.23A18.45,18.45,0,0,0,262.08,114.41Z" fill="#fff" stroke="#231f20" stroke-linecap="round" stroke-linejoin="round" stroke-width="3"/><path d="M231.83,183.18h0a106.65,106.65,0,0,1-76.56,32.28c-.9,0-1.81,0-2.72,0,.21-2,.45-4.87.61-7a55.51,55.51,0,0,0,5.92-.1h0c.85-.07,1.71-.15,2.56-.25h0c1.27-.15,2.55-.36,3.81-.63h0c.75-.15,1.49-.33,2.22-.53.37-.09.75-.2,1.12-.31,1-.28,1.91-.61,2.85-1s1.86-.76,2.76-1.2c.61-.29,1.22-.6,1.81-.93h0c.67-.38,1.35-.77,2-1.21h0c.65-.42,1.31-.87,2-1.35a34.66,34.66,0,0,0,3.74-3.2c.6-.59,1.19-1.2,1.76-1.85a37.15,37.15,0,0,0,2.5-3.1c9.48.77,27.6.14,40-13.43Z" fill="#fff" stroke="#231f20" stroke-linecap="round" stroke-linejoin="round" stroke-width="3"/><path d="M153.16,208.47c-.16,2.09-.4,5-.61,7a106.45,106.45,0,0,1-55.48-17.19L110,195.8l-.17-.3h0C118,199.75,135.59,207.85,153.16,208.47Z" fill="#231f20" stroke="#231f20" stroke-linecap="round" stroke-linejoin="round" stroke-width="3"/><path d="M262.26,108.48c0,2-.05,4-.18,5.93a18.45,18.45,0,0,1-2.15-1l-.17-.1c-.56-14.27-9.56-41.64-10.69-45L249,68l2.67-6.06A106.57,106.57,0,0,1,262.26,108.48Z" fill="#231f20" stroke="#231f20" stroke-linecap="round" stroke-linejoin="round" stroke-width="3"/><path d="M118.71,7.91V26.6a2.42,2.42,0,0,1-.27.12C115.71,27.84,93.58,37.41,83.06,57a2.19,2.19,0,0,1-.3.16c0-.4,0-.83.06-1.25C76.05,54.6,68,55.27,62,56.17A107.32,107.32,0,0,1,118.71,7.91Z" fill="#231f20" stroke="#231f20" stroke-linecap="round" stroke-linejoin="round" stroke-width="3"/><path d="M225.56,57.92c-6.85,5.76-14,14-20.53,30.24,0,0,0,0,0,0-1.73-2.38-6.73-4.62-12.73-6.57h-.06c-1.05-.41-2.15-.82-3.33-1.23l-.19-.07-.23-.08c-.77-.27-1.59-.54-2.44-.81l-1.4-.43-1.35-.39-.19-.06-.69-.19-.38-.1h0l-.13,0-1-.27-1.66-.42-.08,0-1.28-.3-.19,0h0l-.32-.07-1.68-.37-.44-.09L174,76.31l-.91-.17q-.81-.17-1.65-.3l-.52-.09s0,0,0,0c-.55-.1-1.12-.2-1.69-.28l-.72-.11c-1.06-.17-2.14-.32-3.26-.45l-1.13-.13-.61-.07-.3,0-.14,0-.74-.08h0l-.64-.07h-.19c-3.59-25.56-5.76-22.32-5.94-38.75l.3-.19.49.19A66.57,66.57,0,0,1,170,29.65h0q2.37-.6,4.71-1.05a110.47,110.47,0,0,1,14.47-1.78l.75,0,.71,0,1-.05c2.4-.1,4-.09,4.41-.08h.1l.36.21.5.33.06,0c.18.12.38.27.63.43.84.58,2,1.43,3.43,2.6.26.21.54.43.81.67l1.13,1,.92.81c.55.49,1.12,1,1.71,1.57.35.32.69.66,1.06,1s.88.85,1.34,1.32l.55.56c.2.19.39.39.58.59s.39.39.58.6c.58.61,1.19,1.24,1.8,1.91l.6.67c.64.69,1.27,1.4,1.91,2.14.21.25.43.5.64.76s.45.51.67.77l1.33,1.6c.23.28.44.56.68.84l.68.85c.7.87,1.39,1.76,2.09,2.69.46.59.91,1.19,1.36,1.81,1.23,1.64,2.45,3.38,3.72,5.21h0C225.39,57.67,225.46,57.79,225.56,57.92Z" fill="#231f20" stroke="#231f20" stroke-linecap="round" stroke-linejoin="round" stroke-width="3"/><path d="M89.47,95.73s-7.87-10-6.72-38.53" fill="none" stroke="#231f20" stroke-linecap="round" stroke-linejoin="round" stroke-width="3"/><path d="M196.16,26.6h-.1" fill="none" stroke="#231f20" stroke-linecap="round" stroke-linejoin="round" stroke-width="3"/><path d="M214.4,131.83v.38c-14,22.56-32.4,30.95-32.4,30.95l-.64-.07c-5.15-.72-39.71-5.68-44.36-13-5.76-22.32-9.36-43.93-9.36-43.93s28.07-29.51,33.83-31.68h.3c2.39.4,18.44,3.12,30.44,7h.06A60,60,0,0,1,205,88.12s0,0,0,0S214.55,120.1,214.4,131.83Z" fill="#fff" stroke="#231f20" stroke-linecap="round" stroke-linejoin="round" stroke-width="3"/><path d="M192.21,81.54c-12-3.89-28.05-6.61-30.44-7l.53,0,.61.07.31,0,.3,0,.61.07,1.13.13c1.12.13,2.2.28,3.26.45l.72.11.7.12,1,.16s0,0,0,0l.52.09q.84.14,1.65.3l.31,0,.6.12,1.18.24.44.09,1.68.37.32.07.19,0,1.28.3h.08l.44.1,1.13.29,1.22.33h0l.38.1.69.19.19.06,1.38.39,1.37.43c.85.27,1.67.54,2.44.81l.23.08.19.07C190.06,80.72,191.16,81.13,192.21,81.54Z" fill="none" stroke="#231f20" stroke-linecap="round" stroke-linejoin="round" stroke-width="3"/><path d="M137,150.09c-14.41,10.8-35.17,15.24-35.17,15.24s-16.31-8.77-28.31-33.12c.09-6.15,2.55-13.05,5.5-19.19l.18-.35h0a.42.42,0,0,1,.07-.13c1.54-3,3.19-5.86,4.7-8.35.28-.45.55-.88.8-1.3,1.56-2.52,2.93-4.56,3.76-5.8.13-.18.24-.35.35-.49s.06-.08.08-.12.13-.21.19-.29l.12-.16c.06-.11.13-.17.16-.23l0-.06c22.68,6.83,38.17,10.43,38.17,10.43S127.27,119.48,137,150.09Z" fill="#231f20" stroke="#231f20" stroke-linecap="round" stroke-linejoin="round" stroke-width="3"/><path d="M79,113c-3,6.14-5.41,13-5.5,19.19C72.7,127.3,75.52,119.89,79,113Z" fill="none" stroke="#231f20" stroke-linecap="round" stroke-linejoin="round" stroke-width="3"/><path d="M170,29.65a66.57,66.57,0,0,0-13.63,6.08l-.49-.19A45.71,45.71,0,0,1,170,29.65Z" fill="none" stroke="#231f20" stroke-linecap="round" stroke-linejoin="round" stroke-width="3"/><path d="M192.21,81.54c-12-3.89-28.05-6.61-30.44-7l-.11,0,.64.07h0l.74.08.14,0,.3,0,.3,0,.31,0,1.13.13c1.12.13,2.2.28,3.26.45l.72.11c.57.08,1.14.18,1.69.28,0,0,0,0,0,0l.52.09q.84.14,1.65.3l.91.17,1.18.24.44.09,1.68.37.32.07h0l.19,0,1.28.3.08,0,1.66.42,1,.27.13,0h0l.38.1.69.19.19.06,1.35.39,1.4.43c.85.27,1.67.54,2.44.81l.23.08.19.07C190.06,80.72,191.16,81.13,192.21,81.54Z" fill="none" stroke="#231f20" stroke-linecap="round" stroke-linejoin="round" stroke-width="3"/><path d="M259.93,113.46c-2.44,7.41-8.18,21.54-18.9,31.23h0c-3.47,0-17.26-7.51-26.63-12.85.15-11.73-9.37-43.67-9.37-43.67,6.49-16.19,13.68-24.48,20.53-30.24-.1-.13-.17-.25-.25-.37,7.27,2,18.06,7.65,23.76,10.8,1.13,3.37,10.13,30.74,10.69,45Z" fill="#fff" stroke="#231f20" stroke-linecap="round" stroke-linejoin="round" stroke-width="3"/><path d="M188.47,192.56l-.2.28a37.15,37.15,0,0,1-2.5,3.1c-.57.65-1.16,1.26-1.76,1.85a34.66,34.66,0,0,1-3.74,3.2c-.64.48-1.3.93-2,1.35h0c-.67.43-1.35.83-2,1.21h0c-.59.33-1.2.64-1.81.93-.9.44-1.83.83-2.76,1.2s-1.89.69-2.85,1c-.37.11-.75.22-1.12.31-.73.2-1.47.38-2.22.53h0c-1.26.26-2.54.47-3.81.63h0c-.85.1-1.71.18-2.56.25h0a55.51,55.51,0,0,1-5.92.1c-17.57-.62-35.2-8.72-43.33-13l-.3-.52h0q-.18-.33-.39-.75c-.08-.16-.18-.32-.25-.49-.18-.32-.36-.68-.55-1.07-.69-1.43-1.54-3.28-2.4-5.42-.18-.46-.37-.93-.55-1.42s-.37-1-.55-1.47c-.07-.23-.15-.46-.23-.7-1.9-5.52-3.4-12.17-2.78-18.31,0,0,20.76-4.44,35.17-15.24,4.65,7.32,39.21,12.28,44.36,13C183.06,169.49,185.38,178.87,188.47,192.56Z" fill="#fff" stroke="#231f20" stroke-linecap="round" stroke-linejoin="round" stroke-width="3"/><path d="M241,144.68h0c-1.13,16.47-6.13,27.45-12.77,34.72-12.39,13.57-30.51,14.2-40,13.43l.2-.28c-3.09-13.69-5.41-23.07-7.11-29.47l.64.07s18.36-8.39,32.4-30.95v-.38C223.77,137.17,237.56,144.68,241,144.68Z" fill="#231f20" stroke="#231f20" stroke-linecap="round" stroke-linejoin="round" stroke-width="3"/></g><circle cx="106.13" cy="313.88" r="30.24" fill="#414042" stroke="#231f20" stroke-miterlimit="10"/><circle cx="418.57" cy="110.84" r="61.92" fill="url(#radial-gradient)"/><path d="M465.59,158H153.83a31.5,31.5,0,0,0-31.5,31.5V406.22a31.5,31.5,0,0,0,31.5,31.5H465.59a31.49,31.49,0,0,0,31.5-31.5V189.5A31.49,31.49,0,0,0,465.59,158Zm8.47,138.51-24,18.91-16.33,12.86V309.55l16.33-16.5,24-24.27Z" fill="#414042" stroke="#231f20" stroke-miterlimit="10"/><polygon points="474.06 268.78 474.06 296.51 450.06 315.42 433.74 328.28 433.74 309.55 450.06 293.05 474.06 268.78" fill="#bcbec0"/><path d="M468,182.12H152.53a6.08,6.08,0,0,0-6.08,6.08V379.09a6.08,6.08,0,0,0,6.08,6.07H468a6.08,6.08,0,0,0,6.08-6.07V296.51l-24,18.91-16.33,12.86s-30,9.12-33.09,6.24c-1.43-1.3,2.19-8.35,6.59-15.71-3.38.93-5.86,1.5-6.38,1.31-.9-.34,1.12-7.41,3.52-14.79l7,6.76,4.34,4.19c8.19-2.55,16.68-5.4,16.68-5.4l1.32-1.33,16.33-16.5,24-24.27V188.2A6.08,6.08,0,0,0,468,182.12Z" fill="url(#radial-gradient-2)"/><rect x="278.57" y="403.34" width="62.1" height="7.92" stroke="#231f20" stroke-miterlimit="10" fill="url(#radial-gradient-3)"/><path d="M433.73,126.68V309.55l-1.32,1.33s-8.49,2.85-16.68,5.4l-4.34-4.19-7-6.76c-2.4,7.38-4.42,14.45-3.52,14.79.52.19,3-.38,6.38-1.31-4.4,7.36-8,14.41-6.59,15.71,3.13,2.88,33.09-6.24,33.09-6.24v56.88H184.62V126.68Z" fill="#fff" stroke="#231f20" stroke-miterlimit="10"/><rect x="239.81" y="182.12" width="30.36" height="30.36" fill="none" stroke="#c2b59b" stroke-miterlimit="10" stroke-width="8"/><rect x="239.81" y="305.96" width="30.36" height="30.36" fill="none" stroke="#c2b59b" stroke-miterlimit="10" stroke-width="8"/><polyline points="237.53 259.61 249.15 270.77 272.19 247.82" fill="none" stroke="#c2b59b" stroke-miterlimit="10" stroke-width="7"/><rect x="294.23" y="184.82" width="46.44" height="7.56" fill="#58595b" stroke="#231f20" stroke-miterlimit="10"/><rect x="348.59" y="184.82" width="38.52" height="7.56" fill="#58595b" stroke="#231f20" stroke-miterlimit="10"/><rect x="294.23" y="201.38" width="30.78" height="7.38" fill="#58595b" stroke="#231f20" stroke-miterlimit="10"/><rect x="332.93" y="201.38" width="54.18" height="7.38" fill="#58595b" stroke="#231f20" stroke-miterlimit="10"/><rect x="294.23" y="247.82" width="46.44" height="7.38" fill="#58595b" stroke="#231f20" stroke-miterlimit="10"/><rect x="348.59" y="247.82" width="38.52" height="7.38" fill="#58595b" stroke="#231f20" stroke-miterlimit="10"/><rect x="294.23" y="263.66" width="30.78" height="7.11" fill="#e6e7e8" stroke="#231f20" stroke-miterlimit="10"/><rect x="332.93" y="263.66" width="54.18" height="7.11" fill="#58595b" stroke="#231f20" stroke-miterlimit="10"/><rect x="294.23" y="310.1" width="46.44" height="7.56" fill="#e6e7e8" stroke="#231f20" stroke-miterlimit="10"/><polygon points="207.75 113.36 223.94 95.36 317.37 95.36 336.63 114.8 207.75 113.36" fill="#6d6e71" stroke="#231f20" stroke-miterlimit="10"/><rect x="348.59" y="310.1" width="38.52" height="7.56" fill="#58595b" stroke="#231f20" stroke-miterlimit="10"/><rect x="294.23" y="326.12" width="30.78" height="7.2" fill="#58595b" stroke="#231f20" stroke-miterlimit="10"/><rect x="332.93" y="326.12" width="54.18" height="6.48" fill="#58595b" stroke="#231f20" stroke-miterlimit="10"/><rect x="184.61" y="110.84" width="249.12" height="14.76" fill="#231f20" stroke="#231f20" stroke-miterlimit="10"/><circle cx="588.81" cy="250.51" r="23.49" fill="#414042" stroke="#231f20" stroke-miterlimit="10"/><circle cx="27.65" cy="251.51" r="15.57" fill="none" stroke="#231f20" stroke-miterlimit="10"/><polygon points="450.06 158 450.06 293.05 433.74 309.55 433.74 158 450.06 158" fill="#808285"/><polygon points="450.06 315.42 450.06 385.16 433.74 385.16 433.74 328.28 450.06 315.42" fill="#808285"/><path d="M415.73,316.28c-3,.94-6,1.83-8.5,2.53-3.38.93-5.86,1.5-6.38,1.31-.9-.34,1.12-7.41,3.52-14.79l7,6.76Z" fill="#231f20"/><path d="M542.21,199.88l-45.12,45.61-23,23.29-24,24.27-16.33,16.5-1.32,1.33s-8.49,2.85-16.68,5.4l-4.34-4.19-7-6.76c2.69-8.31,5.84-17,5.84-17l110.05-110,10.49,10.32Z" fill="#808285"/><polygon points="542.22 199.88 497.1 245.49 474.06 268.78 450.06 293.05 433.74 309.55 432.42 310.88 420.77 297.86 433.74 284.98 450.06 268.77 474.06 244.92 497.1 222.03 530.75 188.6 542.22 199.88" fill="#3c2415"/><polygon points="410.21 288.32 420.77 297.86 530.75 188.6 520.25 178.28 410.21 288.32" fill="#754c29"/><path d="M433.73,309.55l-1.32,1.33s-8.49,2.85-16.68,5.4c-3,.94-6,1.83-8.5,2.53-4.4,7.36-8,14.41-6.6,15.71,3.14,2.88,33.1-6.24,33.1-6.24" fill="#bcbec0"/><polyline points="474.06 268.78 497.1 245.49 497.1 278.36 474.06 296.51" fill="#bcbec0"/><polyline points="184.62 403.34 184.62 410.54 228.53 411.26 228.53 403.34" fill="none" stroke="#bcbec0" stroke-miterlimit="10" stroke-width="3"/><polyline points="403.13 411.26 403.13 403.34 445.25 403.34 445.25 411.26" fill="none" stroke="#d1d3d4" stroke-miterlimit="10" stroke-width="3"/><polygon points="184.62 113.36 200.81 95.36 294.24 95.36 313.5 114.8 184.62 113.36" fill="#231f20" stroke="#231f20" stroke-miterlimit="10"/><path d="M572.66,262.4s-13.47,10-13.19,15.91,24.34-10.37,24.34-10.37Z" fill="#414042"/><text transform="translate(578.81 268.88)" font-size="53" fill="#e6e7e8" font-family="MyriadPro-Regular, Myriad Pro">?</text><g id="ball-2" data-name="ball"><path d="M23.85,275.35a7,7,0,0,0,.78-.13A7,7,0,0,1,23.85,275.35Zm3-.94.42-.25Zm1.72-25.66h0l.29.09Zm-.8-.22-.23-.06-.09,0h0l.34.09Zm-1.51-.34H26.2l.19,0Zm-9.43,6.17s-.07,2.74,1.93,9.05C17.58,258.81,16.83,254.36,16.83,254.36ZM29.44,249l0,0h0l-.5-.17-.29-.09h0l-.28-.08h0l-.14,0-.08,0h0l-.21-.05h0l-.23-.06-.09,0h0l-.26-.07h0l-.07,0-.34-.08h-.09l-.24-.05-.13,0H26.2l-.34-.06-.11,0h0l-.21,0-.14,0-.15,0c-.22,0-.44-.07-.67-.09l-.23,0h-.49a49.84,49.84,0,0,1,6.27,1.44C29.91,249.21,29.69,249.12,29.44,249Zm.7.25a12,12,0,0,1,2.62,1.36A5.91,5.91,0,0,0,30.14,249.29Zm-13.31,5.07s-.07,2.74,1.93,9.05C17.58,258.81,16.83,254.36,16.83,254.36ZM29.44,249l0,0h0l-.5-.17-.29-.09h0l-.28-.08h0l-.14,0-.08,0h0l-.21-.05h0l-.23-.06-.09,0h0l-.26-.07h0l-.07,0-.34-.08h-.09l-.24-.05-.13,0H26.2l-.34-.06-.11,0h0l-.21,0-.14,0-.15,0c-.22,0-.44-.07-.67-.09l-.23,0h-.49a49.84,49.84,0,0,1,6.27,1.44C29.91,249.21,29.69,249.12,29.44,249Zm.7.25a12,12,0,0,1,2.62,1.36A5.91,5.91,0,0,0,30.14,249.29Zm0,0a12,12,0,0,1,2.62,1.36A5.91,5.91,0,0,0,30.14,249.29Zm-.7-.25,0,0h0l-.5-.17-.29-.09h0l-.28-.08h0l-.14,0-.08,0h0l-.21-.05h0l-.23-.06-.09,0h0l-.26-.07h0l-.07,0-.34-.08h-.09l-.24-.05-.13,0H26.2l-.34-.06-.11,0h0l-.21,0-.14,0-.15,0c-.22,0-.44-.07-.67-.09l-.23,0h-.49a49.84,49.84,0,0,1,6.27,1.44C29.91,249.21,29.69,249.12,29.44,249Zm-12.61,5.32s-.07,2.74,1.93,9.05C17.58,258.81,16.83,254.36,16.83,254.36ZM5.69,259.72a10.08,10.08,0,0,1,1.14-4A7.54,7.54,0,0,0,5.69,259.72Zm3.09-7.23-.08.11c-.17.24-.39.57-.65,1a2.39,2.39,0,0,1-.13.21l-.15.24-.45.78a1.74,1.74,0,0,1-.1.19c-.12.22-.23.44-.34.67.31-.61.65-1.2,1-1.72l.16-.26c.32-.52.6-.94.77-1.2l0-.05Zm.07-.1h0l0,0Zm-3.16,7.33c1.09,3.27,4.94,6.92,5.83,6.82A15.79,15.79,0,0,1,5.69,259.72Zm11.14-5.36s-.07,2.74,1.93,9.05C17.58,258.81,16.83,254.36,16.83,254.36Zm0,0s-.07,2.74,1.93,9.05C17.58,258.81,16.83,254.36,16.83,254.36Zm5.81-14.54.1,0a14,14,0,0,1,2.81-1.25A9.5,9.5,0,0,0,22.64,239.82Zm2.91-1.21c.32-.08.65-.16,1-.22a24.31,24.31,0,0,1,3-.37H30l.91,0A13,13,0,0,0,25.55,238.61Zm-8.72,15.75s-.07,2.74,1.93,9.05C17.58,258.81,16.83,254.36,16.83,254.36Zm13.31-5.07a12,12,0,0,1,2.62,1.36A5.91,5.91,0,0,0,30.14,249.29Zm-.7-.25,0,0h0l-.5-.17-.29-.09h0l-.28-.08h0l-.14,0-.08,0h0l-.21-.05h0l-.23-.06-.09,0h0l-.26-.07h0l-.07,0-.34-.08h-.09l-.24-.05-.13,0H26.2l-.34-.06-.11,0h0l-.21,0-.14,0-.15,0c-.22,0-.44-.07-.67-.09l-.23,0h-.49a49.84,49.84,0,0,1,6.27,1.44C29.91,249.21,29.69,249.12,29.44,249Zm-12.61,5.32s-.07,2.74,1.93,9.05C17.58,258.81,16.83,254.36,16.83,254.36Zm9.43-6.17H26.2l.19,0Zm1.51.34-.23-.06-.09,0h0l.34.09Zm.8.22h0l.29.09Zm-2.31-.56H26.2l.19,0Zm1.51.34-.23-.06-.09,0h0l.34.09Zm.8.22h0l.29.09Zm1.57.54a12,12,0,0,1,2.62,1.36A5.91,5.91,0,0,0,30.14,249.29Z" fill="none" stroke="#231f20" stroke-linecap="round" stroke-linejoin="round"/><path d="M13.2,272.82l-2.66.5a22,22,0,0,1-9.48-13.54,27.13,27.13,0,0,0,4.63-.06c1.09,3.27,4.94,6.92,5.83,6.82a9.16,9.16,0,0,0,.57,3.77.88.88,0,0,1,.05.15c0,.1.08.2.11.3l.12.29c.17.44.35.82.49,1.12l.11.22.06.1a1,1,0,0,0,.08.15h0a.44.44,0,0,0,.06.1h0Z" fill="#fff" stroke="#231f20" stroke-linecap="round" stroke-linejoin="round"/><path d="M23.8,247.84c-1.18.45-7,6.52-7,6.52s-3.18-.74-7.85-2.15v0l0,0,0,0,0,.06,0,0,0,0h0l0,.05-.08.11c-.17.24-.39.57-.65,1a2.39,2.39,0,0,1-.13.21l-.15.24-.45.78a1.74,1.74,0,0,1-.1.19c-.12.22-.23.44-.34.67l0,0h0l0,.07a7.54,7.54,0,0,0-1.14,4,27.13,27.13,0,0,1-4.63.06h0a22.05,22.05,0,0,1,2.25-15.71,13.42,13.42,0,0,1,4.3,0c0,.09,0,.18,0,.26l.07,0c2.16-4,6.72-6,7.28-6.24,2.62-.1,7,1.54,7.7,1.81l-.06,0C22.62,243.24,23.06,242.58,23.8,247.84Z" fill="#fff" stroke="#231f20" stroke-linecap="round" stroke-linejoin="round"/><path d="M30.94,238h0a13,13,0,0,0-5.37.63h0a9.5,9.5,0,0,0-2.91,1.21c-.72-.27-5.08-1.91-7.7-1.81l.06,0v-3.85a22.07,22.07,0,0,1,16.06.4A10.87,10.87,0,0,1,30.94,238Z" fill="#fff" stroke="#231f20" stroke-linecap="round" stroke-linejoin="round"/><path d="M41.81,246.5a.73.73,0,0,1,0,.08,27.15,27.15,0,0,0-4.89-2.23h0c-.26-.38-.51-.73-.76-1.07l-.28-.37c-.15-.2-.29-.38-.44-.56a2.09,2.09,0,0,0-.14-.17l-.14-.18-.27-.32a1.07,1.07,0,0,0-.14-.16,1,1,0,0,0-.13-.16l-.39-.44-.13-.14a4.59,4.59,0,0,0-.37-.39l-.12-.13-.11-.12L33.4,240l-.27-.27-.22-.21-.35-.32-.19-.17-.24-.2-.16-.14c-.3-.24-.54-.41-.71-.53l-.13-.09h0L31,238l-.08,0a10.87,10.87,0,0,0,.12-3.45,22.14,22.14,0,0,1,11.3,10.73Z" fill="#fff" stroke="#231f20" stroke-linecap="round" stroke-linejoin="round"/><path d="M44.51,256.06a21.89,21.89,0,0,1-6.22,14.16l-.74-.78a11.34,11.34,0,0,0,2.63-7.15,15.35,15.35,0,0,0,3.89-6.43A3.36,3.36,0,0,0,44.51,256.06Z" fill="#fff" stroke="#231f20" stroke-linecap="round" stroke-linejoin="round"/><path d="M38.29,270.22h0a22,22,0,0,1-15.77,6.65H22c.05-.41.1-1,.13-1.44a9.9,9.9,0,0,0,1.22,0h0l.52,0h0a7,7,0,0,0,.78-.13h0a3.69,3.69,0,0,0,.45-.11,2,2,0,0,0,.23-.06l.59-.2.57-.25.37-.19h0l.42-.25h0a4.85,4.85,0,0,0,.4-.28,6.63,6.63,0,0,0,.77-.65l.36-.38c.18-.2.35-.42.52-.64,1.95.16,5.68,0,8.23-2.77Z" fill="#fff" stroke="#231f20" stroke-linecap="round" stroke-linejoin="round"/><path d="M22.09,275.42c0,.44-.08,1-.13,1.44a21.92,21.92,0,0,1-11.42-3.54l2.66-.5,0-.07h0A22.3,22.3,0,0,0,22.09,275.42Z" fill="#231f20" stroke="#231f20" stroke-linecap="round" stroke-linejoin="round"/><path d="M44.55,254.84c0,.41,0,.81,0,1.22a3.36,3.36,0,0,1-.44-.2l0,0c-.12-2.93-2-8.57-2.21-9.26a.73.73,0,0,0,0-.08l.55-1.24A22,22,0,0,1,44.55,254.84Z" fill="#231f20" stroke="#231f20" stroke-linecap="round" stroke-linejoin="round"/><path d="M15,234.13V238l-.06,0c-.56.23-5.12,2.2-7.28,6.24l-.07,0c0-.08,0-.17,0-.26a13.42,13.42,0,0,0-4.3,0A22.16,22.16,0,0,1,15,234.13Z" fill="#231f20" stroke="#231f20" stroke-linecap="round" stroke-linejoin="round"/><path d="M37,244.43a14.74,14.74,0,0,0-4.22,6.23h0a5.91,5.91,0,0,0-2.62-1.36h0c-.22-.08-.44-.17-.69-.25l0,0h0l-.5-.17-.29-.09-.28-.08h0l-.14,0-.08,0h0l-.21-.05-.34-.09h0l-.26-.07h-.11l-.34-.08h-.09l-.24-.05-.19,0-.34-.06-.11,0h0L25.4,248l-.15,0c-.22,0-.44-.07-.67-.09l-.23,0h-.22l-.15,0H23.8c-.74-5.26-1.18-4.6-1.22-8l.06,0,.1,0a14,14,0,0,1,2.81-1.25h0c.32-.08.65-.16,1-.22a24.31,24.31,0,0,1,3-.37H30l.91,0h0l.08,0,.1.07h0l.13.09c.17.12.41.29.71.53l.16.14.24.2.19.17.35.32.22.21.27.27.12.11.11.12.12.13a4.59,4.59,0,0,1,.37.39l.13.14.39.44a1,1,0,0,1,.13.16,1.07,1.07,0,0,1,.14.16l.27.32.14.18a2.09,2.09,0,0,1,.14.17c.15.18.29.36.44.56l.28.37c.25.34.5.69.76,1.07h0A.35.35,0,0,1,37,244.43Z" fill="#231f20" stroke="#231f20" stroke-linecap="round" stroke-linejoin="round"/><path d="M9,252.21s-1.62-2.05-1.39-7.93" fill="none" stroke="#231f20" stroke-linecap="round" stroke-linejoin="round"/><path d="M30.94,238h0" fill="none" stroke="#231f20" stroke-linecap="round" stroke-linejoin="round"/><path d="M34.7,259.65v.07A17.34,17.34,0,0,1,28,266.1l-.14,0c-1.06-.15-8.17-1.17-9.13-2.67-1.18-4.6-1.93-9.05-1.93-9.05s5.79-6.07,7-6.52h.06a49.84,49.84,0,0,1,6.27,1.44h0a12,12,0,0,1,2.62,1.36h0S34.73,257.23,34.7,259.65Z" fill="#fff" stroke="#231f20" stroke-linecap="round" stroke-linejoin="round"/><path d="M30.13,249.29a49.84,49.84,0,0,0-6.27-1.44h.49l.23,0c.23,0,.45.06.67.09l.15,0,.14,0,.21,0h0l.11,0,.34.06h.06l.13,0,.24.05h.09l.34.08h.11l.26.07h0l.09,0,.23.06.25.07h0l.08,0,.14,0h0l.28.08.29.09.5.17h0l0,0C29.69,249.12,29.91,249.21,30.13,249.29Z" fill="none" stroke="#231f20" stroke-linecap="round" stroke-linejoin="round"/><path d="M18.76,263.41a21.42,21.42,0,0,1-7.24,3.13,15.79,15.79,0,0,1-5.83-6.82,10.08,10.08,0,0,1,1.14-4l0-.07h0l0,0c.31-.61.65-1.2,1-1.72l.16-.26c.32-.52.6-.94.77-1.2l.07-.1,0,0,0-.06,0,0,0,0v0c4.67,1.41,7.85,2.15,7.85,2.15S16.76,257.1,18.76,263.41Z" fill="#231f20" stroke="#231f20" stroke-linecap="round" stroke-linejoin="round"/><path d="M6.83,255.77a10.08,10.08,0,0,0-1.14,4A7.54,7.54,0,0,1,6.83,255.77Z" fill="none" stroke="#231f20" stroke-linecap="round" stroke-linejoin="round"/><path d="M25.55,238.61a14,14,0,0,0-2.81,1.25l-.1,0A9.5,9.5,0,0,1,25.55,238.61Z" fill="none" stroke="#231f20" stroke-linecap="round" stroke-linejoin="round"/><path d="M30.13,249.29a49.84,49.84,0,0,0-6.27-1.44H24l.15,0h.22l.23,0c.23,0,.45.06.67.09l.15,0,.35.06h0l.11,0,.34.06.19,0,.24.05h.09l.34.08h.11l.26.07h0l.34.09.21.05h0l.08,0,.14,0h0l.28.08.29.09.5.17h0l0,0C29.69,249.12,29.91,249.21,30.13,249.29Z" fill="none" stroke="#231f20" stroke-linecap="round" stroke-linejoin="round"/><path d="M44.07,255.86a15.35,15.35,0,0,1-3.89,6.43h0c-.72,0-3.55-1.54-5.48-2.64,0-2.42-1.93-9-1.93-9A14.74,14.74,0,0,1,37,244.43a.35.35,0,0,0-.05-.08,27.15,27.15,0,0,1,4.89,2.23c.24.69,2.09,6.33,2.21,9.26Z" fill="#fff" stroke="#231f20" stroke-linecap="round" stroke-linejoin="round"/><path d="M29.36,272.15l0,.06c-.17.22-.34.44-.52.64l-.36.38a6.63,6.63,0,0,1-.77.65,4.85,4.85,0,0,1-.4.28h0l-.42.25h0l-.37.19-.57.25-.59.2a2,2,0,0,1-.23.06,3.69,3.69,0,0,1-.45.11h0a7,7,0,0,1-.78.13h0l-.52,0h0a9.9,9.9,0,0,1-1.22,0,22.3,22.3,0,0,1-8.92-2.67.44.44,0,0,1-.06-.1h0a1,1,0,0,1-.08-.15l-.06-.1-.11-.22c-.14-.3-.32-.68-.49-1.12l-.12-.29c0-.1-.07-.2-.11-.3a.88.88,0,0,0-.05-.15,9.16,9.16,0,0,1-.57-3.77,21.42,21.42,0,0,0,7.24-3.13c1,1.5,8.07,2.52,9.13,2.67C28.24,267.4,28.72,269.33,29.36,272.15Z" fill="#fff" stroke="#231f20" stroke-linecap="round" stroke-linejoin="round"/><path d="M40.18,262.29h0a11.34,11.34,0,0,1-2.63,7.15c-2.55,2.8-6.28,2.93-8.23,2.77l0-.06c-.64-2.82-1.12-4.75-1.47-6.07l.14,0a17.34,17.34,0,0,0,6.67-6.38v-.07C36.63,260.75,39.46,262.29,40.18,262.29Z" fill="#231f20" stroke="#231f20" stroke-linecap="round" stroke-linejoin="round"/></g></g></svg>